<svg xmlns="http://www.w3.org/2000/svg" viewBox="0 0 1920 1080">
<style type="text/css">
	.st1{fill:#000;}
</style>


		<!-- A -->
		<path class="st1" d="M275.4,326.72h-46.47c0.11-9.43,0.21-18.85,0.32-28.28c1.51-3.13,3.02-6.26,4.53-9.38
			c2.91-1.89,5.83-3.79,8.74-5.68c2.19-0.45,4.38-0.89,6.57-1.34c22.21,0.09,44.43,0.17,66.64,0.26c0-4.6,0-9.19,0-13.79h-86.81
			v-24.26h117.19c2.43,1.53,4.85,3.06,7.28,4.6c1.49,1.36,2.98,2.72,4.47,4.09c0.81,1.87,1.62,3.74,2.43,5.62
			c0.38,1.79,0.77,3.57,1.15,5.36v6.38v56.43c-15.49-0.04-30.98-0.09-46.47-0.13c0-7.45,0-14.89,0-22.34
			c-12.89,0.13-25.79,0.26-38.68,0.38C276,312,275.7,319.36,275.4,326.72z"/>

		<!-- B -->
		<path class="st1" d="M450.72,282.13v44.77H569.7l9.7-4.09l3.57-3.91l3.57-4.26l1.02-4.77v-5.36v-3.83l-1.02-4.77l-2.38-3.74
			l-2.21-3.74l-4.43-3.23l-4.94-1.7l-3.4-1.36c-10.84,0-21.67,0-32.51,0c-0.17,7.21-0.34,14.41-0.51,21.62c-13.05,0-26.1,0-39.15,0
			c-0.06-7.21-0.11-14.41-0.17-21.62H450.72z"/>
		<polygon class="st1" points="450.72,244.85 450.72,268 576.68,268 576.68,264.09 574.98,260.17 573.79,256.43 570.89,252.51
			568.68,250.64 563.91,247.06 559.49,244.85 556.94,244.85 		"/>

		<!-- C -->
		<rect x="677.96" y="244.51" class="st1" width="129.87" height="23.32"/>
		<polygon class="st1" points="677.96,281.62 724.26,281.62 724.26,303.91 807.83,303.91 807.83,327.74 700.09,326.38
			693.96,325.87 690.55,323.83 686.3,321.28 683.06,318.38 680.68,313.28 678.81,310.04 677.96,305.62 677.96,292.17 		"/>

		<!-- D -->
		<polygon class="st1" points="901.45,245.02 901.45,267.49 1032.17,267.49 1032.17,263.4 1030.13,258.13 1028.43,254.72
			1025.02,250.81 1021.28,247.91 1017.53,246.04 1013.11,245.02 		"/>
		<path class="st1" d="M901.45,282.3v43.91l110.98,1.02l8.68-3.57l5.45-4.77l2.89-5.11l2.72-6.47V282.3c-15.26,0-30.52,0-45.79,0
			c0,7.04,0,14.07,0,21.11c-12.71,0.23-25.42,0.45-38.13,0.68c-0.28-7.38-0.57-14.75-0.85-22.13
			C932.09,282.07,916.77,282.18,901.45,282.3z"/>

		<!-- E -->

		<rect x="1129.87" y="245.02" class="st1" width="120.85" height="22.81"/>
		<path class="st1" d="M1236.94,282.13c-35.69,0.06-71.38,0.11-107.06,0.17v44.43h121.87c0.17-7.38,0.34-14.75,0.51-22.13
			c-25.65-0.17-51.29-0.34-76.94-0.51c0.17-3.91,0.34-7.83,0.51-11.74c20.43,0.11,40.85,0.23,61.28,0.34
			C1237.05,289.16,1236.99,285.65,1236.94,282.13z"/>

		<!--F -->
		<rect x="1353.19" y="245.19" class="st1" width="122.21" height="23.15"/>
		<polygon class="st1" points="1353.19,281.45 1353.19,325.7 1398.47,325.7 1398.47,303.57 1456.17,303.57 1456.17,282.3 		"/>

		<!--G-->
		<polygon class="st1" points="1701.28,267.83 1701.28,244.68 1593.53,244.68 1586.38,247.74 1582.81,250.81 1578.38,255.23
			1575.49,258.64 1574.64,263.06 1574.64,267.83 		"/>
		<path class="st1" d="M1654.47,303.91c0.17-5.9,0.34-11.8,0.51-17.7h46.3v41.19l-108.09-0.85l-8.68-3.4l-4.6-4.43l-3.23-3.57
			l-2.04-4.09v-4.26v-24.85h45.96c0.11,7.26,0.23,14.52,0.34,21.79C1632.11,303.8,1643.29,303.86,1654.47,303.91z"/>


		<!--H-->
		<rect x="449.87" y="404.68" class="st1" width="46.13" height="24.17"/>
		<rect x="540.94" y="404.68" class="st1" width="47.49" height="24.17"/>
		<polygon class="st1" points="449.87,442.13 449.87,488.09 496,487.23 496,465.11 540.94,465.11 540.94,488.09 589.45,488.09
			588.43,442.13 		"/>

		<!-- I -->
		<polygon class="st1" points="720.51,442.64 765.62,441.79 765.62,487.06 720.51,487.06 		"/>
		<rect x="720.51" y="405.19" class="st1" width="45.11" height="23.32"/>

		<!--J-->
		<rect x="983.83" y="405.19" class="st1" width="45.96" height="23.49"/>
		<path class="st1" d="M983.83,442.64h45.96v44.6H922.89l-8-2.89l-6.3-6.3l-3.57-6.13l-1.19-5.11v-4.09v-5.62v-7.32v-4.94v-2.21
			h45.96c0.11,7.32,0.23,14.64,0.34,21.96c11.01,0,22.01,0,33.02,0C983.38,457.28,983.6,449.96,983.83,442.64z"/>

		<!--K-->
		<rect x="1123.91" y="404.85" class="st1" width="45.96" height="24.34"/>
		<polygon class="st1" points="1209.7,404.85 1257.7,404.85 1256.34,410.81 1253.96,417.02 1251.23,419.83 1248,423.57
			1243.06,426.13 1238.3,428.34 1234.89,429.19 1209.7,429.19 		"/>
		<polygon class="st1" points="1169.87,487.23 1169.87,464.26 1209.7,464.26 1209.7,487.23 1257.7,487.23 1257.7,480.94
			1257.7,461.7 1253.96,453.02 1249.53,447.74 1245.45,445.36 1239.83,442.81 1234.55,442.81 1123.91,441.96 1123.91,487.74 		"/>

		<!-- L -->
		<polygon class="st1" points="1358.47,404.68 1404.26,404.68 1405.11,428.68 1358.47,429.19 		"/>
		<polygon class="st1" points="1358.47,441.79 1405.11,441.79 1405.11,463.74 1469.45,463.74 1470.13,488.09 1358.47,488.09 		"/>

		<!--M-->
		<polygon class="st1" points="215.15,404.68 215.15,428.85 376,428.85 376.68,425.28 374.64,418.64 370.21,413.19 364.6,407.91
				360.17,406.04 355.23,404.68 		"/>
		<polygon class="st1" points="260.77,442.13 261.96,487.23 215.15,488.09 215.15,463.23 217.87,453.53 222.81,447.91 228.77,444
				234.55,442.13 		"/>
		<rect x="272.17" y="442.81" class="st1" width="46.81" height="44.6"/>
		<polygon class="st1" points="329.53,442.13 375.83,442.13 375.83,487.4 330.21,488.09 		"/>

		<!-- N-->
		<path class="st1" d="M1611.57,486.89l1.19-54.13l27.23,54.13l45.28,1.02l7.83-3.57l4.26-3.91l4.94-5.79l2.21-7.32v-5.28v-57.36
			h-39.83c-0.07,9.25-0.13,18.49-0.2,27.74c0.12,8.23,0.24,16.46,0.37,24.68c0.09,1.82,0.17,3.63,0.26,5.45
			c-9.28-19.29-18.55-38.58-27.83-57.87c-15.21,0.4-30.41,0.79-45.62,1.19l-5.11,0.34l-4.94,2.55l-5.79,5.62l-3.23,6.47l-1.19,6.64
			v9.7v50.72C1584.79,487.57,1598.18,487.23,1611.57,486.89z"/>

		<!-- O -->
		<polygon class="st1" points="227.4,600.17 363.23,600.17 362.38,593.28 358.3,585.96 352.85,579.83 346.89,577.62 342.98,577.62
			246.64,577.62 241.19,578.98 236.94,581.02 233.02,585.62 230.13,590.38 228.6,594.81 		"/>
		<path class="st1" d="M227.4,614.21h46.47v20.77h43.57v-20.77c15.35,0.2,30.7,0.4,46.04,0.6c-0.09,7.23-0.17,14.47-0.26,21.7v6.47
			c-0.79,1.73-1.59,3.46-2.38,5.19c-1.19,1.67-2.38,3.35-3.57,5.02c-1.42,1.11-2.84,2.21-4.26,3.32c-1.82,0.77-3.63,1.53-5.45,2.3
			c-1.48,0.17-2.95,0.34-4.43,0.51h-94.47c-1.99-0.31-3.97-0.62-5.96-0.94c-1.99-1.08-3.97-2.16-5.96-3.23
			c-1.53-1.45-3.06-2.89-4.6-4.34l-3.4-6.64c-0.45-3.69-0.91-7.38-1.36-11.06C227.4,626.81,227.4,620.51,227.4,614.21z"/>

		<!-- P -->
		<path class="st1" d="M454.98,576.94h110.81l5.62,2.55l3.91,2.55l3.06,3.57l3.23,5.96l1.36,5.45l1.19,18.55l-1.19,4.43l-2.89,4.43
			l-4.09,4.77l-4.43,3.91l-4.26,2.04h-4.09H500.6l0.51,24.17h-46.13c-0.28-9.19-0.57-18.38-0.85-27.57
			c1.16-1.94,2.31-3.88,3.47-5.82c2.48-3.05,4.95-6.11,7.43-9.16c3.63-0.96,7.26-1.93,10.89-2.89c3.46,0.11,6.92,0.23,10.38,0.34
			c3.23,0.06,6.47,0.11,9.7,0.17c4.31,0,8.62,0,12.94,0c3.57,0,7.15,0,10.72,0c3.12,0,6.24,0,9.36,0c3.18-0.17,6.35-0.34,9.53-0.51
			c0-4.48,0-8.96,0-13.45c-14.24,0-28.48,0-42.72,0c-13.62,0-27.23,0-40.85,0V576.94z"/>

		<!-- Q -->
		<polygon class="st1" points="723.57,635.83 723.57,600.43 762.72,600.43 762.72,658.98 808,658.98 808,596 806.3,589.53
			803.23,585.11 800.51,582.55 796.77,579.83 792.51,576.94 787.4,576.94 695.66,576.94 691.4,578.98 687.49,580.68 683.23,584.26
			680.51,589.02 678.47,594.47 677.28,600.43 677.28,639.4 679.15,646.04 682.55,650.47 686.81,654.89 692.43,657.79 696.17,658.98
			750.81,658.98 750.47,635.83 		"/>

		<!-- R -->
		<polygon class="st1" points="983.32,613.7 983.32,600.43 903.32,600.43 903.32,577.28 1011.91,577.28 1017.7,579.15
			1022.13,582.55 1025.7,586.47 1028.94,592.09 1030.64,598.04 1030.64,618.3 1029.45,622.72 1026.21,627.83 1022.47,631.06
			1018.55,633.62 1012.6,634.98 1012.26,636.68 1016.68,636.68 1020.26,640.09 1024.34,642.3 1027.57,647.57 1029.11,650.98
			1030.64,656.09 1029.96,659.83 983.83,659.83 983.32,636 948.94,636 948.94,658.47 903.32,658.98 903.32,615.06 		"/>

		<!-- S -->
		<path class="st1" d="M1250.04,599.74v-22.81h-106.89l-3.74,2.04l-3.57,2.89l-2.72,3.23l-1.7,4.43v4.6v5.62l2.55,4.77l4.77,3.91
			l66.72,26.72h-75.06v23.83h109.79l2.38-2.38l5.62-6.47l1.87-5.96c-0.23-5.45-0.45-10.89-0.68-16.34c-1.65-1.84-4.31-4.56-8-7.32
			c-7.7-5.76-14.25-7.44-25.7-11.4c-5.25-1.82-13-4.62-22.47-8.51C1212.14,600.31,1231.09,600.03,1250.04,599.74z"/>

		<!-- T -->
		<rect x="1345.36" y="576.6" class="st1" width="137.36" height="24.34"/>
		<polygon class="st1" points="1391.15,614.55 1436.77,614.55 1436.77,659.66 1391.15,658.98 		"/>

		<!--U-->
		<polygon class="st1" points="1573.11,576.94 1620.43,578.13 1620.43,600.77 1573.96,600.77 		"/>
		<rect x="1655.66" y="576.94" class="st1" width="46.64" height="23.83"/>
		<path class="st1" d="M1620.43,614.38v21.28h35.23v-21.28h46.64v24.85l-1.53,5.28l-2.21,4.26l-3.4,3.57l-2.89,2.72l-4.26,2.72
			c-1.7,0.57-3.4,1.13-5.11,1.7c-29.73-0.11-59.46-0.23-89.19-0.34l-6.98-2.55l-4.77-3.06l-3.91-3.4l-2.38-3.06l-1.53-5.11
			l-1.02-5.19v-22.38H1620.43z"/>

		<!-- V -->
		<path class="st1" d="M230.54,787.91h47.16v20.85h35.49v-37.02l1.53-6.13l2.3-6.13l4.34-3.83l5.87-3.32l5.87-1.53h26.3v57.96
			l-4.09,10.72l-8.17,7.91l-9.7,4.34l-4.6,1.79l-81.79-1.19l-2.57-1.63c-4.96-3.15-9.43-7-13.28-11.43l-0.74-0.62
			c-1.91-1.6-3.14-3.87-3.44-6.34l-0.49-5.17V787.91z"/>
		<polygon class="st1" points="231.49,750.81 259.06,750.81 263.91,752.34 267.74,754.13 272.34,759.49 274.38,763.83
			276.94,768.43 276.94,773.79 231.49,773.79 		"/>

		<!-- W -->
		<polygon class="st1" points="438.55,750.81 484.77,750.81 484.77,774.3 439.45,774.3 		"/>
		<rect x="496.38" y="750.81" class="st1" width="45.57" height="23.49"/>
		<polygon class="st1" points="553.45,750.81 599.02,750.81 599.02,773.66 553.45,774.3 		"/>
		<path class="st1" d="M553.45,787.7h45.57V814l-2.94,8.81l-2.17,1.91l-2.94,3.19l-3.7,2.17l-3.7,2.17l-4.21,1.02H438.55v-44.81
			c15.53-0.15,31.06-0.3,46.6-0.45c0,7.34,0,14.68,0,22.02c3.64,0.06,7.28,0.13,10.91,0.19c0.06-7.47,0.13-14.94,0.19-22.4
			c15.55,0.15,31.11,0.3,46.66,0.45c0.04,3.79,0.09,7.57,0.13,11.36c-0.06,3.34-0.13,6.68-0.19,10.02c1.4-0.04,2.81-0.09,4.21-0.13
			c2.09,0,4.17,0,6.26,0c-0.13-1.83-0.26-3.66-0.38-5.49c-0.04-2.72-0.09-5.45-0.13-8.17C553.02,793.15,553.23,790.43,553.45,787.7z
			"/>

		<!--X-->
		<polygon class="st1" points="723.06,833.28 723.06,810.49 761.19,810.49 761.19,833.28 810.21,833.28 810.21,807.91
			806.13,796.68 798.3,790.55 791.15,787.7 696.17,787.7 689.02,790.55 683.23,794.98 677.28,804.17 677.28,813.02 677.28,833.28
			"/>
		<polygon class="st1" points="677.28,750.81 722.38,750.81 722.38,774.3 699.83,774.3 690.72,772.17 682.21,767.4 677.28,759.57
			"/>
		<path class="st1" d="M761.19,750.81c16.18-0.01,32.37-0.03,48.55-0.04c-0.18,1.94-0.37,3.89-0.55,5.83
			c-0.79,2.09-1.59,4.17-2.38,6.26c-1.82,1.97-3.63,3.94-5.45,5.91c-0.28,0.29-0.57,0.57-0.88,0.86c-2.54,2.32-5.35,3.65-7.8,4.42
			c-2.33,0.09-4.65,0.17-6.98,0.26h-16.34h-8.17V750.81z"/>


		<!-- Y -->
		<polygon class="st1" points="986.04,749.87 1032.34,750.72 1032.34,774.04 986.04,774.04 		"/>
		<polygon class="st1" points="900.94,750.89 946.72,750.89 946.72,788 1032.34,788 1032.34,794.13 1030.64,797.36 1027.91,801.11
			1026.04,803.83 1022.64,805.36 1019.91,807.06 1017.36,808.6 1013.96,809.62 990.13,809.62 989.79,832.94 943.83,832.94
			943.66,808.6 919.66,808.43 913.87,807.23 908.6,803.83 905.02,800.77 902.3,796 900.94,791.23 		"/>

		<!-- Z -->
		<path class="st1" d="M1130.55,746.47h118.98v22.13c-0.11,0.92-0.23,1.84-0.34,2.77c-0.72,1.16-1.45,2.32-2.17,3.48
			c-0.92,0.87-1.84,1.74-2.77,2.61c-1.87,0.87-3.73,1.73-5.6,2.6c-1.94,0.72-3.87,1.45-5.81,2.17l-57.7,23.32l74.38,0.85l0.85,22.81
			l-119.83,0.85v-26.55c-0.01-1.09-0.01-2.18-0.02-3.28c0.04-1.05,0.29-3.41,1.88-5.78c1.22-1.82,2.71-2.86,3.59-3.37
			c1.93-0.94,3.86-1.87,5.79-2.81l5.79-2.64l18.46-6.42l22.99-7.85l-60.33-0.91L1130.55,746.47z"/>

</svg>
